<svg width="716" height="398" viewBox="0 0 716 398" fill="none" xmlns="http://www.w3.org/2000/svg">
<path d="M511.99 197.578C517.513 197.521 522.062 201.956 521.84 207.474C520.302 245.745 507.716 282.834 485.5 314.209C461.354 348.31 427.063 373.921 387.511 387.396C347.959 400.87 305.164 401.52 265.222 389.252C228.472 377.965 195.862 356.273 171.279 326.901C167.735 322.666 168.63 316.377 173.038 313.05L188.763 301.183C193.171 297.856 199.419 298.756 203.016 302.947C222.526 325.67 248.118 342.469 276.877 351.302C308.831 361.116 343.068 360.596 374.709 349.817C406.35 339.037 433.783 318.548 453.1 291.267C470.486 266.714 480.499 237.786 482.079 207.877C482.37 202.362 486.769 197.835 492.291 197.779L511.99 197.578Z" fill="white"/>
<path d="M511.99 197.578C517.513 197.521 522.062 201.956 521.84 207.474C520.302 245.745 507.716 282.834 485.5 314.209C461.354 348.31 427.063 373.921 387.511 387.396C347.959 400.87 305.164 401.52 265.222 389.252C228.472 377.965 195.862 356.273 171.279 326.901C167.735 322.666 168.63 316.377 173.038 313.05L188.763 301.183C193.171 297.856 199.419 298.756 203.016 302.947C222.526 325.67 248.118 342.469 276.877 351.302C308.831 361.116 343.068 360.596 374.709 349.817C406.35 339.037 433.783 318.548 453.1 291.267C470.486 266.714 480.499 237.786 482.079 207.877C482.37 202.362 486.769 197.835 492.291 197.779L511.99 197.578Z" fill="#F8BC00" fill-opacity="0.8"/>
<path d="M170.302 309.33C165.814 312.548 159.543 311.531 156.555 306.886C136.034 274.984 125.044 237.802 125 199.731C124.952 158.32 137.856 117.93 161.907 84.2186C185.957 50.5068 219.948 25.1609 259.121 11.7301C295.134 -0.617571 333.869 -2.32613 370.712 6.69614C376.076 8.00977 379.079 13.608 377.497 18.8994L371.854 37.7738C370.272 43.0652 364.704 46.0394 359.324 44.7935C330.434 38.1033 300.174 39.623 271.997 49.284C240.658 60.0287 213.465 80.3055 194.225 107.275C174.985 134.244 164.662 166.556 164.7 199.685C164.735 229.472 173.145 258.58 188.873 283.72C191.802 288.402 190.801 294.634 186.313 297.852L170.302 309.33Z" fill="white"/>
<path d="M170.302 309.33C165.814 312.548 159.543 311.531 156.555 306.886C136.034 274.984 125.044 237.802 125 199.731C124.952 158.32 137.856 117.93 161.907 84.2186C185.957 50.5068 219.948 25.1609 259.121 11.7301C295.134 -0.617571 333.869 -2.32613 370.712 6.69614C376.076 8.00977 379.079 13.608 377.497 18.8994L371.854 37.7738C370.272 43.0652 364.704 46.0394 359.324 44.7935C330.434 38.1033 300.174 39.623 271.997 49.284C240.658 60.0287 213.465 80.3055 194.225 107.275C174.985 134.244 164.662 166.556 164.7 199.685C164.735 229.472 173.145 258.58 188.873 283.72C191.802 288.402 190.801 294.634 186.313 297.852L170.302 309.33Z" fill="#F8BC00"/>
<path d="M381.75 20.2259C383.456 14.9733 389.109 12.0749 394.269 14.0438C425.613 26.0039 453.417 45.7166 475.078 71.3343C478.644 75.5517 477.78 81.8454 473.388 85.1944L457.724 97.1404C453.332 100.489 447.08 99.6205 443.461 95.4484C426.763 76.1967 405.673 61.2444 381.979 51.8598C376.845 49.826 373.955 44.2142 375.662 38.9617L381.75 20.2259Z" fill="white"/>
<path d="M381.75 20.2259C383.456 14.9733 389.109 12.0749 394.269 14.0438C425.613 26.0039 453.417 45.7166 475.078 71.3343C478.644 75.5517 477.78 81.8454 473.388 85.1944L457.724 97.1404C453.332 100.489 447.08 99.6205 443.461 95.4484C426.763 76.1967 405.673 61.2444 381.979 51.8598C376.845 49.826 373.955 44.2142 375.662 38.9617L381.75 20.2259Z" fill="#F8BC00" fill-opacity="0.6"/>
<path d="M476 88.7025C480.468 85.4563 486.744 86.4337 489.762 91.0595C496.77 101.805 502.721 113.205 507.529 125.099C509.599 130.22 506.812 135.928 501.594 137.738L482.982 144.192C477.764 146.002 472.097 143.224 469.962 138.13C466.512 129.896 462.374 121.968 457.591 114.43C454.633 109.766 455.594 103.528 460.062 100.282L476 88.7025Z" fill="white"/>
<path d="M476 88.7025C480.468 85.4563 486.744 86.4337 489.762 91.0595C496.77 101.805 502.721 113.205 507.529 125.099C509.599 130.22 506.812 135.928 501.594 137.738L482.982 144.192C477.764 146.002 472.097 143.224 469.962 138.13C466.512 129.896 462.374 121.968 457.591 114.43C454.633 109.766 455.594 103.528 460.062 100.282L476 88.7025Z" fill="#F8BC00" fill-opacity="0.2"/>
<path d="M502.774 141.25C508.027 139.544 513.694 142.413 515.134 147.745C518.201 159.1 520.252 170.705 521.264 182.424C521.739 187.926 517.399 192.564 511.88 192.762L492.192 193.466C486.673 193.663 482.071 189.343 481.527 183.847C480.731 175.813 479.323 167.85 477.317 160.03C475.944 154.68 478.786 149.045 484.038 147.338L502.774 141.25Z" fill="white"/>
<path d="M502.774 141.25C508.027 139.544 513.694 142.413 515.134 147.745C518.201 159.1 520.252 170.705 521.264 182.424C521.739 187.926 517.399 192.564 511.88 192.762L492.192 193.466C486.673 193.663 482.071 189.343 481.527 183.847C480.731 175.813 479.323 167.85 477.317 160.03C475.944 154.68 478.786 149.045 484.038 147.338L502.774 141.25Z" fill="#F8BC00" fill-opacity="0.4"/>
<path d="M424.667 53C424.667 55.9455 427.054 58.3333 430 58.3333C432.946 58.3333 435.333 55.9455 435.333 53C435.333 50.0545 432.946 47.6667 430 47.6667C427.054 47.6667 424.667 50.0545 424.667 53ZM459 24V23H458.586L458.293 23.2929L459 24ZM430.707 53.7071L459.707 24.7071L458.293 23.2929L429.293 52.2929L430.707 53.7071ZM459 25H696.5V23H459V25Z" fill="white"/>
<path d="M478.667 122C478.667 124.946 481.054 127.333 484 127.333C486.946 127.333 489.333 124.946 489.333 122C489.333 119.054 486.946 116.667 484 116.667C481.054 116.667 478.667 119.054 478.667 122ZM513 93V92H512.586L512.293 92.2929L513 93ZM484.707 122.707L513.707 93.7071L512.293 92.2929L483.293 121.293L484.707 122.707ZM513 94H714V92H513V94Z" fill="white"/>
<path d="M495.667 178C495.667 180.946 498.054 183.333 501 183.333C503.946 183.333 506.333 180.946 506.333 178C506.333 175.054 503.946 172.667 501 172.667C498.054 172.667 495.667 175.054 495.667 178ZM530 149V148H529.586L529.293 148.293L530 149ZM501.707 178.707L530.707 149.707L529.293 148.293L500.293 177.293L501.707 178.707ZM530 150H691V148H530V150Z" fill="white"/>
<path d="M473.667 292C473.667 294.946 476.054 297.333 479 297.333C481.946 297.333 484.333 294.946 484.333 292C484.333 289.054 481.946 286.667 479 286.667C476.054 286.667 473.667 289.054 473.667 292ZM532 263V262H531.744L531.52 262.123L532 263ZM479.48 292.877L532.48 263.877L531.52 262.123L478.52 291.123L479.48 292.877ZM532 264H665V262H532V264Z" fill="white"/>
<path d="M165.333 120C165.333 122.946 162.946 125.333 160 125.333C157.054 125.333 154.667 122.946 154.667 120C154.667 117.054 157.054 114.667 160 114.667C162.946 114.667 165.333 117.054 165.333 120ZM122.605 91V90H122.948L123.218 90.2098L122.605 91ZM159.387 120.79L121.992 91.7902L123.218 90.2098L160.613 119.21L159.387 120.79ZM122.605 92H2.5V90H122.605V92Z" fill="white"/>
<path d="M7.6 71C8.42133 71 9.144 71.152 9.768 71.456C10.3973 71.7547 10.8827 72.176 11.224 72.72C11.5707 73.2587 11.744 73.8773 11.744 74.576C11.744 75.2747 11.5707 75.896 11.224 76.44C10.8827 76.9787 10.3973 77.4 9.768 77.704C9.144 78.0027 8.42133 78.152 7.6 78.152H2.952V83H1.448V71H7.6ZM7.568 76.84C8.10133 76.84 8.56533 76.7493 8.96 76.568C9.36 76.3813 9.66667 76.1173 9.88 75.776C10.0987 75.4347 10.208 75.0347 10.208 74.576C10.208 74.1173 10.0987 73.7173 9.88 73.376C9.66667 73.0347 9.36 72.7733 8.96 72.592C8.56533 72.4053 8.10133 72.312 7.568 72.312H2.952V76.84H7.568ZM18.4043 73.784C18.6336 73.784 18.8683 73.8 19.1083 73.832C19.3483 73.864 19.5483 73.9067 19.7083 73.96V75.296C19.5109 75.232 19.2763 75.184 19.0043 75.152C18.7323 75.1147 18.4683 75.096 18.2123 75.096C17.5723 75.096 17.0016 75.2427 16.5003 75.536C16.0043 75.8293 15.6149 76.2507 15.3323 76.8C15.0549 77.3493 14.9163 77.9947 14.9163 78.736V83H13.4443V76.792L12.9323 73.992H14.4043L14.8043 76.416C15.0869 75.6 15.5376 74.9573 16.1562 74.488C16.7803 74.0187 17.5296 73.784 18.4043 73.784ZM21.6139 78.928C21.6832 79.552 21.8885 80.096 22.2299 80.56C22.5765 81.0187 23.0352 81.3707 23.6059 81.616C24.1765 81.8613 24.8325 81.984 25.5739 81.984C26.3045 81.984 27.0245 81.864 27.7339 81.624C28.4432 81.3787 29.0859 81.0373 29.6619 80.6V81.76C29.1072 82.208 28.4459 82.5627 27.6779 82.824C26.9099 83.08 26.1419 83.208 25.3739 83.208C24.3445 83.208 23.4272 83.0107 22.6219 82.616C21.8219 82.216 21.1979 81.6587 20.7499 80.944C20.3019 80.2293 20.0779 79.4107 20.0779 78.488C20.0779 77.5707 20.2885 76.7547 20.7099 76.04C21.1365 75.3253 21.7312 74.7707 22.4939 74.376C23.2565 73.9813 24.1259 73.784 25.1019 73.784C26.0619 73.784 26.9045 74 27.6299 74.432C28.3605 74.8587 28.9259 75.4613 29.3259 76.24C29.7259 77.0133 29.9259 77.9093 29.9259 78.928H21.6139ZM25.0779 75.008C24.4592 75.008 23.9045 75.12 23.4139 75.344C22.9285 75.5627 22.5312 75.88 22.2219 76.296C21.9179 76.7067 21.7205 77.192 21.6299 77.752H28.3819C28.2859 77.1867 28.0885 76.6987 27.7899 76.288C27.4965 75.8773 27.1179 75.5627 26.6539 75.344C26.1952 75.12 25.6699 75.008 25.0779 75.008ZM40.5465 80.368C40.5465 80.9387 40.3705 81.4373 40.0185 81.864C39.6665 82.2907 39.1545 82.6213 38.4825 82.856C37.8105 83.0907 37.0105 83.208 36.0825 83.208C35.1118 83.208 34.2558 83.072 33.5145 82.8C32.7785 82.528 32.1998 82.1467 31.7785 81.656C31.3625 81.1653 31.1385 80.5973 31.1065 79.952H32.6025C32.6612 80.3627 32.8452 80.7253 33.1545 81.04C33.4638 81.3547 33.8718 81.6 34.3785 81.776C34.8852 81.9467 35.4558 82.032 36.0905 82.032C36.7092 82.032 37.2425 81.9707 37.6905 81.848C38.1385 81.72 38.4798 81.536 38.7145 81.296C38.9545 81.056 39.0745 80.7707 39.0745 80.44C39.0745 80.1787 38.9998 79.968 38.8505 79.808C38.7012 79.648 38.4532 79.5173 38.1065 79.416C37.7598 79.3147 37.2745 79.232 36.6505 79.168L34.9145 78.992C33.6665 78.8693 32.7652 78.5947 32.2105 78.168C31.6612 77.7413 31.3865 77.1813 31.3865 76.488C31.3865 75.9227 31.5625 75.4373 31.9145 75.032C32.2718 74.6267 32.7705 74.3173 33.4105 74.104C34.0505 73.8907 34.7945 73.784 35.6425 73.784C36.5278 73.784 37.3225 73.912 38.0265 74.168C38.7358 74.424 39.2985 74.784 39.7145 75.248C40.1305 75.712 40.3598 76.24 40.4025 76.832H38.9065C38.8585 76.4853 38.6985 76.1707 38.4265 75.888C38.1545 75.6053 37.7758 75.3813 37.2905 75.216C36.8052 75.0453 36.2318 74.96 35.5705 74.96C34.7118 74.96 34.0452 75.0853 33.5705 75.336C33.1012 75.5813 32.8665 75.936 32.8665 76.4C32.8665 76.752 33.0265 77.0293 33.3465 77.232C33.6665 77.4293 34.2105 77.568 34.9785 77.648L36.9625 77.848C37.8532 77.9387 38.5598 78.0907 39.0825 78.304C39.6105 78.512 39.9865 78.784 40.2105 79.12C40.4345 79.456 40.5465 79.872 40.5465 80.368ZM52.4359 73.992L52.0119 78.496L52.4359 83H50.9319L50.6999 80.528C50.2145 81.3707 49.5985 82.0293 48.8519 82.504C48.1105 82.9733 47.2865 83.208 46.3799 83.208C45.5052 83.208 44.7239 83.0107 44.0359 82.616C43.3479 82.216 42.8092 81.6587 42.4199 80.944C42.0359 80.2293 41.8439 79.4133 41.8439 78.496C41.8439 77.5787 42.0359 76.7627 42.4199 76.048C42.8092 75.3333 43.3479 74.7787 44.0359 74.384C44.7239 73.984 45.5052 73.784 46.3799 73.784C47.2865 73.784 48.1105 74.0187 48.8519 74.488C49.5985 74.9573 50.2145 75.6133 50.6999 76.456L50.9319 73.992H52.4359ZM46.6279 81.968C47.5612 81.968 48.3959 81.656 49.1319 81.032C49.8679 80.4027 50.4439 79.5573 50.8599 78.496C50.4439 77.44 49.8652 76.5973 49.1239 75.968C48.3879 75.3387 47.5559 75.024 46.6279 75.024C45.9985 75.024 45.4332 75.1707 44.9319 75.464C44.4359 75.7573 44.0465 76.168 43.7639 76.696C43.4865 77.224 43.3479 77.824 43.3479 78.496C43.3479 79.1733 43.4865 79.776 43.7639 80.304C44.0465 80.8267 44.4359 81.2347 44.9319 81.528C45.4332 81.8213 45.9985 81.968 46.6279 81.968ZM54.6295 83V70.68H56.1015V83H54.6295ZM59.4889 78.928C59.5582 79.552 59.7635 80.096 60.1049 80.56C60.4515 81.0187 60.9102 81.3707 61.4809 81.616C62.0515 81.8613 62.7075 81.984 63.4489 81.984C64.1795 81.984 64.8995 81.864 65.6089 81.624C66.3182 81.3787 66.9609 81.0373 67.5369 80.6V81.76C66.9822 82.208 66.3209 82.5627 65.5529 82.824C64.7849 83.08 64.0169 83.208 63.2489 83.208C62.2195 83.208 61.3022 83.0107 60.4969 82.616C59.6969 82.216 59.0729 81.6587 58.6249 80.944C58.1769 80.2293 57.9529 79.4107 57.9529 78.488C57.9529 77.5707 58.1635 76.7547 58.5849 76.04C59.0115 75.3253 59.6062 74.7707 60.3689 74.376C61.1315 73.9813 62.0009 73.784 62.9769 73.784C63.9369 73.784 64.7795 74 65.5049 74.432C66.2355 74.8587 66.8009 75.4613 67.2009 76.24C67.6009 77.0133 67.8009 77.9093 67.8009 78.928H59.4889ZM62.9529 75.008C62.3342 75.008 61.7795 75.12 61.2889 75.344C60.8035 75.5627 60.4062 75.88 60.0969 76.296C59.7929 76.7067 59.5955 77.192 59.5049 77.752H66.2569C66.1609 77.1867 65.9635 76.6987 65.6649 76.288C65.3715 75.8773 64.9929 75.5627 64.5289 75.344C64.0702 75.12 63.5449 75.008 62.9529 75.008ZM70.5735 76.92C70.2802 76.92 70.0322 76.8213 69.8295 76.624C69.6322 76.4213 69.5335 76.1733 69.5335 75.88C69.5335 75.5867 69.6322 75.3413 69.8295 75.144C70.0322 74.9413 70.2802 74.84 70.5735 74.84C70.8668 74.84 71.1122 74.9413 71.3095 75.144C71.5122 75.3413 71.6135 75.5867 71.6135 75.88C71.6135 76.1733 71.5122 76.4213 71.3095 76.624C71.1122 76.8213 70.8668 76.92 70.5735 76.92ZM70.5735 83.112C70.2802 83.112 70.0322 83.0133 69.8295 82.816C69.6322 82.6133 69.5335 82.3653 69.5335 82.072C69.5335 81.7787 69.6322 81.5333 69.8295 81.336C70.0322 81.1333 70.2802 81.032 70.5735 81.032C70.8668 81.032 71.1122 81.1333 71.3095 81.336C71.5122 81.5333 71.6135 81.7787 71.6135 82.072C71.6135 82.3653 71.5122 82.6133 71.3095 82.816C71.1122 83.0133 70.8668 83.112 70.5735 83.112ZM87.8774 78.544H89.9334V80.616H87.8774V83H85.1814V80.616H77.4854V78.688L84.4374 71H87.8774V78.544ZM85.1814 73.208L80.3654 78.544H85.1814V73.208ZM97.7019 83.24C96.3792 83.24 95.2245 82.9813 94.2379 82.464C93.2512 81.9467 92.4912 81.2187 91.9579 80.28C91.4245 79.336 91.1579 78.2427 91.1579 77C91.1579 75.7573 91.4245 74.6667 91.9579 73.728C92.4912 72.784 93.2512 72.0533 94.2379 71.536C95.2245 71.0187 96.3792 70.76 97.7019 70.76C99.0192 70.76 100.169 71.0187 101.15 71.536C102.137 72.0533 102.897 72.784 103.43 73.728C103.963 74.6667 104.23 75.7573 104.23 77C104.23 78.2427 103.963 79.336 103.43 80.28C102.897 81.2187 102.137 81.9467 101.15 82.464C100.169 82.9813 99.0192 83.24 97.7019 83.24ZM97.7019 81.024C98.4965 81.024 99.1792 80.8667 99.7499 80.552C100.321 80.232 100.755 79.7707 101.054 79.168C101.358 78.5653 101.51 77.8427 101.51 77C101.51 76.1573 101.358 75.4347 101.054 74.832C100.755 74.2293 100.321 73.7707 99.7499 73.456C99.1792 73.136 98.4965 72.976 97.7019 72.976C96.8965 72.976 96.2059 73.1333 95.6299 73.448C95.0592 73.7627 94.6219 74.2213 94.3179 74.824C94.0192 75.4267 93.8699 76.152 93.8699 77C93.8699 77.848 94.0192 78.5733 94.3179 79.176C94.6219 79.7787 95.0592 80.2373 95.6299 80.552C96.2059 80.8667 96.8965 81.024 97.7019 81.024ZM109.441 77.96C108.641 77.96 107.931 77.8133 107.313 77.52C106.699 77.2213 106.222 76.8027 105.881 76.264C105.539 75.7253 105.369 75.1067 105.369 74.408C105.369 73.7093 105.539 73.0907 105.881 72.552C106.222 72.0133 106.699 71.5973 107.313 71.304C107.931 71.0053 108.641 70.856 109.441 70.856C110.241 70.856 110.947 71.0053 111.561 71.304C112.179 71.5973 112.659 72.0133 113.001 72.552C113.342 73.0907 113.513 73.7093 113.513 74.408C113.513 75.1067 113.342 75.7253 113.001 76.264C112.659 76.8027 112.179 77.2213 111.561 77.52C110.947 77.8133 110.241 77.96 109.441 77.96ZM110.737 83L117.249 71H119.273L112.745 83H110.737ZM109.441 76.352C110.049 76.352 110.526 76.1813 110.873 75.84C111.219 75.4933 111.393 75.016 111.393 74.408C111.393 73.8053 111.219 73.3307 110.873 72.984C110.526 72.632 110.049 72.456 109.441 72.456C108.838 72.456 108.363 72.632 108.017 72.984C107.67 73.3307 107.497 73.8053 107.497 74.408C107.497 75.016 107.67 75.4933 108.017 75.84C108.363 76.1813 108.838 76.352 109.441 76.352ZM120.545 83.232C119.745 83.232 119.035 83.0853 118.417 82.792C117.803 82.4933 117.326 82.0747 116.985 81.536C116.643 80.9973 116.473 80.376 116.473 79.672C116.473 78.9733 116.643 78.3573 116.985 77.824C117.326 77.2853 117.803 76.8693 118.417 76.576C119.035 76.2773 119.745 76.128 120.545 76.128C121.345 76.128 122.051 76.2773 122.665 76.576C123.283 76.8693 123.763 77.2853 124.105 77.824C124.446 78.3573 124.617 78.9733 124.617 79.672C124.617 80.376 124.446 80.9973 124.105 81.536C123.763 82.0747 123.283 82.4933 122.665 82.792C122.051 83.0853 121.345 83.232 120.545 83.232ZM120.545 81.616C121.153 81.616 121.63 81.4453 121.977 81.104C122.323 80.7573 122.497 80.28 122.497 79.672C122.497 79.0693 122.321 78.5947 121.969 78.248C121.622 77.896 121.147 77.72 120.545 77.72C119.942 77.72 119.467 77.896 119.121 78.248C118.774 78.5947 118.601 79.0693 118.601 79.672C118.601 80.28 118.774 80.7573 119.121 81.104C119.467 81.4453 119.942 81.616 120.545 81.616Z" fill="white"/>
<path d="M533.952 243V253.672H542.352V255H532.448V243H533.952ZM543.77 255V245.96L544.506 246.088L545.242 245.96V255H543.77ZM544.506 244.632C544.197 244.632 543.938 244.539 543.73 244.352C543.527 244.165 543.426 243.931 543.426 243.648C543.426 243.365 543.527 243.131 543.73 242.944C543.938 242.757 544.197 242.664 544.506 242.664C544.815 242.664 545.071 242.757 545.274 242.944C545.482 243.131 545.586 243.365 545.586 243.648C545.586 243.931 545.482 244.165 545.274 244.352C545.071 244.539 544.815 244.632 544.506 244.632ZM556.086 245.992H557.558V257.64H556.086V252.312C555.606 253.219 554.982 253.928 554.214 254.44C553.446 254.952 552.59 255.208 551.646 255.208C550.771 255.208 549.99 255.011 549.302 254.616C548.614 254.216 548.075 253.659 547.686 252.944C547.302 252.229 547.11 251.413 547.11 250.496C547.11 249.579 547.302 248.763 547.686 248.048C548.075 247.333 548.614 246.779 549.302 246.384C549.99 245.984 550.771 245.784 551.646 245.784C552.59 245.784 553.446 246.04 554.214 246.552C554.982 247.059 555.606 247.765 556.086 248.672V245.992ZM551.894 253.968C552.827 253.968 553.662 253.656 554.398 253.032C555.134 252.403 555.71 251.557 556.126 250.496C555.71 249.44 555.131 248.597 554.39 247.968C553.654 247.339 552.822 247.024 551.894 247.024C551.264 247.024 550.699 247.171 550.198 247.464C549.702 247.757 549.312 248.168 549.03 248.696C548.752 249.224 548.614 249.824 548.614 250.496C548.614 251.173 548.752 251.776 549.03 252.304C549.312 252.827 549.702 253.235 550.198 253.528C550.699 253.821 551.264 253.968 551.894 253.968ZM569.294 255H567.822L567.446 252.688C567.094 253.483 566.59 254.101 565.934 254.544C565.278 254.987 564.526 255.208 563.678 255.208C562.862 255.208 562.163 255.04 561.582 254.704C561.006 254.368 560.566 253.883 560.262 253.248C559.963 252.608 559.814 251.84 559.814 250.944V245.992H561.286V250.696C561.286 251.763 561.526 252.573 562.006 253.128C562.486 253.677 563.187 253.952 564.11 253.952C564.75 253.952 565.313 253.805 565.798 253.512C566.283 253.219 566.657 252.805 566.918 252.272C567.185 251.733 567.318 251.115 567.318 250.416V245.992H568.79V252.16L569.294 255ZM571.27 255V245.96L572.006 246.088L572.742 245.96V255H571.27ZM572.006 244.632C571.697 244.632 571.438 244.539 571.23 244.352C571.027 244.165 570.926 243.931 570.926 243.648C570.926 243.365 571.027 243.131 571.23 242.944C571.438 242.757 571.697 242.664 572.006 242.664C572.315 242.664 572.571 242.757 572.774 242.944C572.982 243.131 573.086 243.365 573.086 243.648C573.086 243.931 572.982 244.165 572.774 244.352C572.571 244.539 572.315 244.632 572.006 244.632ZM585.546 242.68L584.794 250.432L585.21 255H583.714L583.482 252.504C582.996 253.352 582.38 254.016 581.634 254.496C580.887 254.971 580.058 255.208 579.146 255.208C578.271 255.208 577.49 255.011 576.802 254.616C576.114 254.216 575.575 253.659 575.186 252.944C574.802 252.229 574.61 251.413 574.61 250.496C574.61 249.579 574.802 248.763 575.186 248.048C575.575 247.333 576.114 246.779 576.802 246.384C577.49 245.984 578.271 245.784 579.146 245.784C580.058 245.784 580.89 246.024 581.642 246.504C582.394 246.984 583.012 247.653 583.498 248.512L584.05 242.68H585.546ZM579.394 253.968C580.327 253.968 581.162 253.656 581.898 253.032C582.634 252.403 583.21 251.557 583.626 250.496C583.21 249.44 582.631 248.597 581.89 247.968C581.154 247.339 580.322 247.024 579.394 247.024C578.764 247.024 578.199 247.171 577.698 247.464C577.202 247.757 576.812 248.168 576.53 248.696C576.252 249.224 576.114 249.824 576.114 250.496C576.114 251.173 576.252 251.776 576.53 252.304C576.812 252.827 577.202 253.235 577.698 253.528C578.199 253.821 578.764 253.968 579.394 253.968ZM587.395 255V245.96L588.131 246.088L588.867 245.96V255H587.395ZM588.131 244.632C587.822 244.632 587.563 244.539 587.355 244.352C587.152 244.165 587.051 243.931 587.051 243.648C587.051 243.365 587.152 243.131 587.355 242.944C587.563 242.757 587.822 242.664 588.131 242.664C588.44 242.664 588.696 242.757 588.899 242.944C589.107 243.131 589.211 243.365 589.211 243.648C589.211 243.931 589.107 244.165 588.899 244.352C588.696 244.539 588.44 244.632 588.131 244.632ZM590.127 247.184V246.472L592.103 246.104L592.695 243.664H593.575V245.992H597.967V247.184H593.575V251.752C593.575 252.291 593.652 252.72 593.807 253.04C593.967 253.36 594.207 253.592 594.527 253.736C594.847 253.875 595.263 253.944 595.775 253.944C596.244 253.944 596.665 253.888 597.039 253.776C597.412 253.664 597.777 253.491 598.135 253.256V254.56C597.857 254.731 597.468 254.88 596.967 255.008C596.465 255.141 595.967 255.208 595.471 255.208C594.303 255.208 593.449 254.92 592.911 254.344C592.372 253.763 592.103 252.976 592.103 251.984V247.184H590.127ZM607.821 245.992H609.389L604.469 255.872C604.133 256.549 603.714 257.048 603.213 257.368C602.711 257.688 602.127 257.848 601.461 257.848C601.013 257.848 600.605 257.792 600.237 257.68C599.869 257.568 599.506 257.397 599.149 257.168V256C599.511 256.229 599.858 256.395 600.189 256.496C600.525 256.597 600.901 256.648 601.317 256.648C601.781 256.648 602.178 256.541 602.509 256.328C602.839 256.12 603.114 255.787 603.333 255.328L603.629 254.712H602.965L598.685 245.992H600.309L604.045 253.848L607.821 245.992ZM611.574 248.92C611.28 248.92 611.032 248.821 610.83 248.624C610.632 248.421 610.534 248.173 610.534 247.88C610.534 247.587 610.632 247.341 610.83 247.144C611.032 246.941 611.28 246.84 611.574 246.84C611.867 246.84 612.112 246.941 612.31 247.144C612.512 247.341 612.614 247.587 612.614 247.88C612.614 248.173 612.512 248.421 612.31 248.624C612.112 248.821 611.867 248.92 611.574 248.92ZM611.574 255.112C611.28 255.112 611.032 255.013 610.83 254.816C610.632 254.613 610.534 254.365 610.534 254.072C610.534 253.779 610.632 253.533 610.83 253.336C611.032 253.133 611.28 253.032 611.574 253.032C611.867 253.032 612.112 253.133 612.31 253.336C612.512 253.533 612.614 253.779 612.614 254.072C612.614 254.365 612.512 254.613 612.31 254.816C612.112 255.013 611.867 255.112 611.574 255.112ZM628.877 250.544H630.933V252.616H628.877V255H626.181V252.616H618.485V250.688L625.437 243H628.877V250.544ZM626.181 245.208L621.365 250.544H626.181V245.208ZM638.702 255.24C637.379 255.24 636.225 254.981 635.238 254.464C634.251 253.947 633.491 253.219 632.958 252.28C632.425 251.336 632.158 250.243 632.158 249C632.158 247.757 632.425 246.667 632.958 245.728C633.491 244.784 634.251 244.053 635.238 243.536C636.225 243.019 637.379 242.76 638.702 242.76C640.019 242.76 641.169 243.019 642.15 243.536C643.137 244.053 643.897 244.784 644.43 245.728C644.963 246.667 645.23 247.757 645.23 249C645.23 250.243 644.963 251.336 644.43 252.28C643.897 253.219 643.137 253.947 642.15 254.464C641.169 254.981 640.019 255.24 638.702 255.24ZM638.702 253.024C639.497 253.024 640.179 252.867 640.75 252.552C641.321 252.232 641.755 251.771 642.054 251.168C642.358 250.565 642.51 249.843 642.51 249C642.51 248.157 642.358 247.435 642.054 246.832C641.755 246.229 641.321 245.771 640.75 245.456C640.179 245.136 639.497 244.976 638.702 244.976C637.897 244.976 637.206 245.133 636.63 245.448C636.059 245.763 635.622 246.221 635.318 246.824C635.019 247.427 634.87 248.152 634.87 249C634.87 249.848 635.019 250.573 635.318 251.176C635.622 251.779 636.059 252.237 636.63 252.552C637.206 252.867 637.897 253.024 638.702 253.024ZM650.441 249.96C649.641 249.96 648.931 249.813 648.313 249.52C647.699 249.221 647.222 248.803 646.881 248.264C646.539 247.725 646.369 247.107 646.369 246.408C646.369 245.709 646.539 245.091 646.881 244.552C647.222 244.013 647.699 243.597 648.313 243.304C648.931 243.005 649.641 242.856 650.441 242.856C651.241 242.856 651.947 243.005 652.561 243.304C653.179 243.597 653.659 244.013 654.001 244.552C654.342 245.091 654.513 245.709 654.513 246.408C654.513 247.107 654.342 247.725 654.001 248.264C653.659 248.803 653.179 249.221 652.561 249.52C651.947 249.813 651.241 249.96 650.441 249.96ZM651.737 255L658.249 243H660.273L653.745 255H651.737ZM650.441 248.352C651.049 248.352 651.526 248.181 651.873 247.84C652.219 247.493 652.393 247.016 652.393 246.408C652.393 245.805 652.219 245.331 651.873 244.984C651.526 244.632 651.049 244.456 650.441 244.456C649.838 244.456 649.363 244.632 649.017 244.984C648.67 245.331 648.497 245.805 648.497 246.408C648.497 247.016 648.67 247.493 649.017 247.84C649.363 248.181 649.838 248.352 650.441 248.352ZM661.545 255.232C660.745 255.232 660.035 255.085 659.417 254.792C658.803 254.493 658.326 254.075 657.985 253.536C657.643 252.997 657.473 252.376 657.473 251.672C657.473 250.973 657.643 250.357 657.985 249.824C658.326 249.285 658.803 248.869 659.417 248.576C660.035 248.277 660.745 248.128 661.545 248.128C662.345 248.128 663.051 248.277 663.665 248.576C664.283 248.869 664.763 249.285 665.105 249.824C665.446 250.357 665.617 250.973 665.617 251.672C665.617 252.376 665.446 252.997 665.105 253.536C664.763 254.075 664.283 254.493 663.665 254.792C663.051 255.085 662.345 255.232 661.545 255.232ZM661.545 253.616C662.153 253.616 662.63 253.445 662.977 253.104C663.323 252.757 663.497 252.28 663.497 251.672C663.497 251.069 663.321 250.595 662.969 250.248C662.622 249.896 662.147 249.72 661.545 249.72C660.942 249.72 660.467 249.896 660.121 250.248C659.774 250.595 659.601 251.069 659.601 251.672C659.601 252.28 659.774 252.757 660.121 253.104C660.467 253.445 660.942 253.616 661.545 253.616Z" fill="white"/>
<path d="M538.704 134.728C539.669 134.899 540.387 135.256 540.856 135.8C541.331 136.339 541.568 136.995 541.568 137.768C541.568 138.408 541.413 138.971 541.104 139.456C540.8 139.941 540.349 140.32 539.752 140.592C539.16 140.864 538.443 141 537.6 141H530.032L530.984 134.84L530.032 129H537.328C538.059 129 538.68 129.117 539.192 129.352C539.709 129.581 540.101 129.915 540.368 130.352C540.635 130.784 540.768 131.301 540.768 131.904C540.768 132.507 540.597 133.064 540.256 133.576C539.92 134.088 539.403 134.472 538.704 134.728ZM539.24 132.048C539.24 131.696 539.155 131.384 538.984 131.112C538.819 130.84 538.571 130.629 538.24 130.48C537.915 130.325 537.52 130.248 537.056 130.248H531.688L532.344 134.232H536.856C537.32 134.232 537.731 134.149 538.088 133.984C538.445 133.813 538.725 133.565 538.928 133.24C539.136 132.909 539.24 132.512 539.24 132.048ZM537.528 139.752C538.323 139.752 538.939 139.576 539.376 139.224C539.819 138.867 540.04 138.352 540.04 137.68C540.04 136.965 539.776 136.416 539.248 136.032C538.72 135.643 537.949 135.448 536.936 135.448H532.344L531.68 139.752H537.528ZM541.904 129H553.712V130.328H548.56V141H547.056V130.328H541.904V129ZM556.89 129V139.672H565.29V141H555.386V129H556.89ZM579.472 141L574.992 135.96H572.28V141H570.776V129H577.024C577.824 129 578.531 129.147 579.144 129.44C579.763 129.733 580.243 130.144 580.584 130.672C580.925 131.2 581.096 131.805 581.096 132.488C581.096 133.165 580.925 133.768 580.584 134.296C580.243 134.819 579.763 135.227 579.144 135.52C578.531 135.813 577.824 135.96 577.024 135.96H576.84L581.344 141H579.472ZM572.28 130.312V134.664H576.968C577.496 134.664 577.955 134.576 578.344 134.4C578.739 134.219 579.043 133.965 579.256 133.64C579.469 133.309 579.576 132.925 579.576 132.488C579.576 132.045 579.469 131.661 579.256 131.336C579.043 131.005 578.739 130.752 578.344 130.576C577.955 130.4 577.496 130.312 576.968 130.312H572.28ZM583.77 136.928C583.839 137.552 584.045 138.096 584.386 138.56C584.733 139.019 585.191 139.371 585.762 139.616C586.333 139.861 586.989 139.984 587.73 139.984C588.461 139.984 589.181 139.864 589.89 139.624C590.599 139.379 591.242 139.037 591.818 138.6V139.76C591.263 140.208 590.602 140.563 589.834 140.824C589.066 141.08 588.298 141.208 587.53 141.208C586.501 141.208 585.583 141.011 584.778 140.616C583.978 140.216 583.354 139.659 582.906 138.944C582.458 138.229 582.234 137.411 582.234 136.488C582.234 135.571 582.445 134.755 582.866 134.04C583.293 133.325 583.887 132.771 584.65 132.376C585.413 131.981 586.282 131.784 587.258 131.784C588.218 131.784 589.061 132 589.786 132.432C590.517 132.859 591.082 133.461 591.482 134.24C591.882 135.013 592.082 135.909 592.082 136.928H583.77ZM587.234 133.008C586.615 133.008 586.061 133.12 585.57 133.344C585.085 133.563 584.687 133.88 584.378 134.296C584.074 134.707 583.877 135.192 583.786 135.752H590.538C590.442 135.187 590.245 134.699 589.946 134.288C589.653 133.877 589.274 133.563 588.81 133.344C588.351 133.12 587.826 133.008 587.234 133.008ZM604.72 139.536L607.8 131.992H609.304L605.544 141H604.032L600.968 133.456L597.864 141H596.352L592.6 131.992H594.12L597.2 139.512L600.208 131.992H601.736L604.72 139.536ZM620.483 131.992L620.059 136.496L620.483 141H618.979L618.747 138.528C618.261 139.371 617.645 140.029 616.899 140.504C616.157 140.973 615.333 141.208 614.427 141.208C613.552 141.208 612.771 141.011 612.083 140.616C611.395 140.216 610.856 139.659 610.467 138.944C610.083 138.229 609.891 137.413 609.891 136.496C609.891 135.579 610.083 134.763 610.467 134.048C610.856 133.333 611.395 132.779 612.083 132.384C612.771 131.984 613.552 131.784 614.427 131.784C615.333 131.784 616.157 132.019 616.899 132.488C617.645 132.957 618.261 133.613 618.747 134.456L618.979 131.992H620.483ZM614.675 139.968C615.608 139.968 616.443 139.656 617.179 139.032C617.915 138.403 618.491 137.557 618.907 136.496C618.491 135.44 617.912 134.597 617.171 133.968C616.435 133.339 615.603 133.024 614.675 133.024C614.045 133.024 613.48 133.171 612.979 133.464C612.483 133.757 612.093 134.168 611.811 134.696C611.533 135.224 611.395 135.824 611.395 136.496C611.395 137.173 611.533 137.776 611.811 138.304C612.093 138.827 612.483 139.235 612.979 139.528C613.48 139.821 614.045 139.968 614.675 139.968ZM627.732 131.784C627.962 131.784 628.196 131.8 628.436 131.832C628.676 131.864 628.876 131.907 629.036 131.96V133.296C628.839 133.232 628.604 133.184 628.332 133.152C628.06 133.115 627.796 133.096 627.54 133.096C626.9 133.096 626.33 133.243 625.828 133.536C625.332 133.829 624.943 134.251 624.66 134.8C624.383 135.349 624.244 135.995 624.244 136.736V141H622.772V134.792L622.26 131.992H623.732L624.132 134.416C624.415 133.6 624.866 132.957 625.484 132.488C626.108 132.019 626.858 131.784 627.732 131.784ZM640.405 128.68L639.653 136.432L640.069 141H638.573L638.341 138.504C637.856 139.352 637.24 140.016 636.493 140.496C635.746 140.971 634.917 141.208 634.005 141.208C633.13 141.208 632.349 141.011 631.661 140.616C630.973 140.216 630.434 139.659 630.045 138.944C629.661 138.229 629.469 137.413 629.469 136.496C629.469 135.579 629.661 134.763 630.045 134.048C630.434 133.333 630.973 132.779 631.661 132.384C632.349 131.984 633.13 131.784 634.005 131.784C634.917 131.784 635.749 132.024 636.501 132.504C637.253 132.984 637.872 133.653 638.357 134.512L638.909 128.68H640.405ZM634.253 139.968C635.186 139.968 636.021 139.656 636.757 139.032C637.493 138.403 638.069 137.557 638.485 136.496C638.069 135.44 637.49 134.597 636.749 133.968C636.013 133.339 635.181 133.024 634.253 133.024C633.624 133.024 633.058 133.171 632.557 133.464C632.061 133.757 631.672 134.168 631.389 134.696C631.112 135.224 630.973 135.824 630.973 136.496C630.973 137.173 631.112 137.776 631.389 138.304C631.672 138.827 632.061 139.235 632.557 139.528C633.058 139.821 633.624 139.968 634.253 139.968ZM651.047 138.368C651.047 138.939 650.871 139.437 650.519 139.864C650.167 140.291 649.655 140.621 648.983 140.856C648.311 141.091 647.511 141.208 646.583 141.208C645.612 141.208 644.756 141.072 644.015 140.8C643.279 140.528 642.7 140.147 642.279 139.656C641.863 139.165 641.639 138.597 641.607 137.952H643.103C643.161 138.363 643.345 138.725 643.655 139.04C643.964 139.355 644.372 139.6 644.879 139.776C645.385 139.947 645.956 140.032 646.591 140.032C647.209 140.032 647.743 139.971 648.191 139.848C648.639 139.72 648.98 139.536 649.215 139.296C649.455 139.056 649.575 138.771 649.575 138.44C649.575 138.179 649.5 137.968 649.351 137.808C649.201 137.648 648.953 137.517 648.607 137.416C648.26 137.315 647.775 137.232 647.151 137.168L645.415 136.992C644.167 136.869 643.265 136.595 642.711 136.168C642.161 135.741 641.887 135.181 641.887 134.488C641.887 133.923 642.063 133.437 642.415 133.032C642.772 132.627 643.271 132.317 643.911 132.104C644.551 131.891 645.295 131.784 646.143 131.784C647.028 131.784 647.823 131.912 648.527 132.168C649.236 132.424 649.799 132.784 650.215 133.248C650.631 133.712 650.86 134.24 650.903 134.832H649.407C649.359 134.485 649.199 134.171 648.927 133.888C648.655 133.605 648.276 133.381 647.791 133.216C647.305 133.045 646.732 132.96 646.071 132.96C645.212 132.96 644.545 133.085 644.071 133.336C643.601 133.581 643.367 133.936 643.367 134.4C643.367 134.752 643.527 135.029 643.847 135.232C644.167 135.429 644.711 135.568 645.479 135.648L647.463 135.848C648.353 135.939 649.06 136.091 649.583 136.304C650.111 136.512 650.487 136.784 650.711 137.12C650.935 137.456 651.047 137.872 651.047 138.368ZM653.808 134.92C653.515 134.92 653.267 134.821 653.064 134.624C652.867 134.421 652.768 134.173 652.768 133.88C652.768 133.587 652.867 133.341 653.064 133.144C653.267 132.941 653.515 132.84 653.808 132.84C654.101 132.84 654.347 132.941 654.544 133.144C654.747 133.341 654.848 133.587 654.848 133.88C654.848 134.173 654.747 134.421 654.544 134.624C654.347 134.821 654.101 134.92 653.808 134.92ZM653.808 141.112C653.515 141.112 653.267 141.013 653.064 140.816C652.867 140.613 652.768 140.365 652.768 140.072C652.768 139.779 652.867 139.533 653.064 139.336C653.267 139.133 653.515 139.032 653.808 139.032C654.101 139.032 654.347 139.133 654.544 139.336C654.747 139.533 654.848 139.779 654.848 140.072C654.848 140.365 654.747 140.613 654.544 140.816C654.347 141.013 654.101 141.112 653.808 141.112ZM666.952 133.072C667.97 133.072 668.842 133.251 669.568 133.608C670.298 133.96 670.85 134.443 671.224 135.056C671.597 135.669 671.784 136.357 671.784 137.12C671.784 137.915 671.565 138.621 671.128 139.24C670.69 139.859 670.069 140.341 669.264 140.688C668.464 141.035 667.541 141.208 666.496 141.208C665.44 141.208 664.512 141.051 663.712 140.736C662.917 140.416 662.282 139.979 661.808 139.424C661.338 138.869 661.042 138.237 660.92 137.528H662.432C662.549 138.024 662.784 138.453 663.136 138.816C663.488 139.179 663.949 139.459 664.52 139.656C665.09 139.848 665.749 139.944 666.496 139.944C667.248 139.944 667.906 139.829 668.472 139.6C669.042 139.365 669.482 139.035 669.792 138.608C670.101 138.181 670.256 137.685 670.256 137.12C670.256 136.555 670.117 136.061 669.84 135.64C669.562 135.213 669.16 134.885 668.632 134.656C668.109 134.421 667.482 134.304 666.752 134.304C665.85 134.304 665.05 134.475 664.352 134.816C663.658 135.157 663.106 135.579 662.696 136.08H661.504L662.368 129H670.816V130.256H663.48L662.944 134.552C663.424 134.104 664.005 133.747 664.688 133.48C665.376 133.208 666.13 133.072 666.952 133.072ZM676.925 135.96C676.125 135.96 675.416 135.813 674.797 135.52C674.184 135.221 673.706 134.803 673.365 134.264C673.024 133.725 672.853 133.107 672.853 132.408C672.853 131.709 673.024 131.091 673.365 130.552C673.706 130.013 674.184 129.597 674.797 129.304C675.416 129.005 676.125 128.856 676.925 128.856C677.725 128.856 678.432 129.005 679.045 129.304C679.664 129.597 680.144 130.013 680.485 130.552C680.826 131.091 680.997 131.709 680.997 132.408C680.997 133.107 680.826 133.725 680.485 134.264C680.144 134.803 679.664 135.221 679.045 135.52C678.432 135.813 677.725 135.96 676.925 135.96ZM678.221 141L684.733 129H686.757L680.229 141H678.221ZM676.925 134.352C677.533 134.352 678.01 134.181 678.357 133.84C678.704 133.493 678.877 133.016 678.877 132.408C678.877 131.805 678.704 131.331 678.357 130.984C678.01 130.632 677.533 130.456 676.925 130.456C676.322 130.456 675.848 130.632 675.501 130.984C675.154 131.331 674.981 131.805 674.981 132.408C674.981 133.016 675.154 133.493 675.501 133.84C675.848 134.181 676.322 134.352 676.925 134.352ZM688.029 141.232C687.229 141.232 686.52 141.085 685.901 140.792C685.288 140.493 684.81 140.075 684.469 139.536C684.128 138.997 683.957 138.376 683.957 137.672C683.957 136.973 684.128 136.357 684.469 135.824C684.81 135.285 685.288 134.869 685.901 134.576C686.52 134.277 687.229 134.128 688.029 134.128C688.829 134.128 689.536 134.277 690.149 134.576C690.768 134.869 691.248 135.285 691.589 135.824C691.93 136.357 692.101 136.973 692.101 137.672C692.101 138.376 691.93 138.997 691.589 139.536C691.248 140.075 690.768 140.493 690.149 140.792C689.536 141.085 688.829 141.232 688.029 141.232ZM688.029 139.616C688.637 139.616 689.114 139.445 689.461 139.104C689.808 138.757 689.981 138.28 689.981 137.672C689.981 137.069 689.805 136.595 689.453 136.248C689.106 135.896 688.632 135.72 688.029 135.72C687.426 135.72 686.952 135.896 686.605 136.248C686.258 136.595 686.085 137.069 686.085 137.672C686.085 138.28 686.258 138.757 686.605 139.104C686.952 139.445 687.426 139.616 688.029 139.616Z" fill="white"/>
<path d="M520.704 78.728C521.669 78.8987 522.387 79.256 522.856 79.8C523.331 80.3387 523.568 80.9947 523.568 81.768C523.568 82.408 523.413 82.9707 523.104 83.456C522.8 83.9413 522.349 84.32 521.752 84.592C521.16 84.864 520.443 85 519.6 85H512.032L512.984 78.84L512.032 73H519.328C520.059 73 520.68 73.1173 521.192 73.352C521.709 73.5813 522.101 73.9147 522.368 74.352C522.635 74.784 522.768 75.3013 522.768 75.904C522.768 76.5067 522.597 77.064 522.256 77.576C521.92 78.088 521.403 78.472 520.704 78.728ZM521.24 76.048C521.24 75.696 521.155 75.384 520.984 75.112C520.819 74.84 520.571 74.6293 520.24 74.48C519.915 74.3253 519.52 74.248 519.056 74.248H513.688L514.344 78.232H518.856C519.32 78.232 519.731 78.1493 520.088 77.984C520.445 77.8133 520.725 77.5653 520.928 77.24C521.136 76.9093 521.24 76.512 521.24 76.048ZM519.528 83.752C520.323 83.752 520.939 83.576 521.376 83.224C521.819 82.8667 522.04 82.352 522.04 81.68C522.04 80.9653 521.776 80.416 521.248 80.032C520.72 79.6427 519.949 79.448 518.936 79.448H514.344L513.68 83.752H519.528ZM523.904 73H535.712V74.328H530.56V85H529.056V74.328H523.904V73ZM538.89 73V83.672H547.29V85H537.386V73H538.89ZM557.912 73C559.235 73 560.405 73.2533 561.424 73.76C562.443 74.2613 563.235 74.9653 563.8 75.872C564.365 76.7787 564.648 77.8213 564.648 79C564.648 80.1787 564.365 81.2213 563.8 82.128C563.235 83.0347 562.443 83.7413 561.424 84.248C560.405 84.7493 559.235 85 557.912 85H552.776V73H557.912ZM557.984 83.68C558.992 83.68 559.883 83.4853 560.656 83.096C561.435 82.7013 562.037 82.1493 562.464 81.44C562.896 80.7307 563.112 79.9173 563.112 79C563.112 78.0827 562.896 77.2693 562.464 76.56C562.037 75.8507 561.435 75.3013 560.656 74.912C559.883 74.5173 558.992 74.32 557.984 74.32H554.28V83.68H557.984ZM567.614 80.928C567.683 81.552 567.889 82.096 568.23 82.56C568.577 83.0187 569.035 83.3707 569.606 83.616C570.177 83.8613 570.833 83.984 571.574 83.984C572.305 83.984 573.025 83.864 573.734 83.624C574.443 83.3787 575.086 83.0373 575.662 82.6V83.76C575.107 84.208 574.446 84.5627 573.678 84.824C572.91 85.08 572.142 85.208 571.374 85.208C570.345 85.208 569.427 85.0107 568.622 84.616C567.822 84.216 567.198 83.6587 566.75 82.944C566.302 82.2293 566.078 81.4107 566.078 80.488C566.078 79.5707 566.289 78.7547 566.71 78.04C567.137 77.3253 567.731 76.7707 568.494 76.376C569.257 75.9813 570.126 75.784 571.102 75.784C572.062 75.784 572.905 76 573.63 76.432C574.361 76.8587 574.926 77.4613 575.326 78.24C575.726 79.0133 575.926 79.9093 575.926 80.928H567.614ZM571.078 77.008C570.459 77.008 569.905 77.12 569.414 77.344C568.929 77.5627 568.531 77.88 568.222 78.296C567.918 78.7067 567.721 79.192 567.63 79.752H574.382C574.286 79.1867 574.089 78.6987 573.79 78.288C573.497 77.8773 573.118 77.5627 572.654 77.344C572.195 77.12 571.67 77.008 571.078 77.008ZM581.622 83.72L585.318 75.992H586.894L582.406 85H580.774L576.286 75.992H577.91L581.622 83.72ZM588.817 80.928C588.886 81.552 589.092 82.096 589.433 82.56C589.78 83.0187 590.238 83.3707 590.809 83.616C591.38 83.8613 592.036 83.984 592.777 83.984C593.508 83.984 594.228 83.864 594.937 83.624C595.646 83.3787 596.289 83.0373 596.865 82.6V83.76C596.31 84.208 595.649 84.5627 594.881 84.824C594.113 85.08 593.345 85.208 592.577 85.208C591.548 85.208 590.63 85.0107 589.825 84.616C589.025 84.216 588.401 83.6587 587.953 82.944C587.505 82.2293 587.281 81.4107 587.281 80.488C587.281 79.5707 587.492 78.7547 587.913 78.04C588.34 77.3253 588.934 76.7707 589.697 76.376C590.46 75.9813 591.329 75.784 592.305 75.784C593.265 75.784 594.108 76 594.833 76.432C595.564 76.8587 596.129 77.4613 596.529 78.24C596.929 79.0133 597.129 79.9093 597.129 80.928H588.817ZM592.281 77.008C591.662 77.008 591.108 77.12 590.617 77.344C590.132 77.5627 589.734 77.88 589.425 78.296C589.121 78.7067 588.924 79.192 588.833 79.752H595.585C595.489 79.1867 595.292 78.6987 594.993 78.288C594.7 77.8773 594.321 77.5627 593.857 77.344C593.398 77.12 592.873 77.008 592.281 77.008ZM598.958 85V72.68H600.43V85H598.958ZM607.625 85.208C606.574 85.208 605.644 85.0107 604.833 84.616C604.022 84.2213 603.393 83.6667 602.945 82.952C602.497 82.2373 602.273 81.4187 602.273 80.496C602.273 79.5733 602.497 78.7547 602.945 78.04C603.393 77.3253 604.022 76.7707 604.833 76.376C605.644 75.9813 606.574 75.784 607.625 75.784C608.676 75.784 609.606 75.9813 610.417 76.376C611.228 76.7707 611.857 77.3253 612.305 78.04C612.753 78.7547 612.977 79.5733 612.977 80.496C612.977 81.4187 612.753 82.2373 612.305 82.952C611.857 83.6667 611.228 84.2213 610.417 84.616C609.606 85.0107 608.676 85.208 607.625 85.208ZM607.625 83.984C608.404 83.984 609.081 83.8427 609.657 83.56C610.238 83.272 610.686 82.8667 611.001 82.344C611.316 81.816 611.473 81.2 611.473 80.496C611.473 79.7973 611.316 79.184 611.001 78.656C610.686 78.128 610.238 77.7227 609.657 77.44C609.081 77.152 608.404 77.008 607.625 77.008C606.846 77.008 606.166 77.152 605.585 77.44C605.009 77.7227 604.564 78.128 604.249 78.656C603.934 79.184 603.777 79.7973 603.777 80.496C603.777 81.2 603.934 81.816 604.249 82.344C604.564 82.8667 605.009 83.272 605.585 83.56C606.166 83.8427 606.846 83.984 607.625 83.984ZM620.729 75.784C621.604 75.784 622.385 75.984 623.073 76.384C623.761 76.7787 624.297 77.3333 624.681 78.048C625.07 78.7627 625.265 79.5787 625.265 80.496C625.265 81.4133 625.07 82.2293 624.681 82.944C624.297 83.6587 623.761 84.216 623.073 84.616C622.385 85.0107 621.604 85.208 620.729 85.208C619.785 85.208 618.929 84.952 618.161 84.44C617.393 83.928 616.769 83.2187 616.289 82.312V87.64H614.817V75.992H616.289V78.672C616.769 77.7653 617.393 77.0587 618.161 76.552C618.929 76.04 619.785 75.784 620.729 75.784ZM620.481 83.968C621.11 83.968 621.673 83.8213 622.169 83.528C622.67 83.2347 623.06 82.8267 623.337 82.304C623.62 81.776 623.761 81.1733 623.761 80.496C623.761 79.824 623.62 79.224 623.337 78.696C623.06 78.168 622.67 77.7573 622.169 77.464C621.673 77.1707 621.11 77.024 620.481 77.024C619.553 77.024 618.718 77.3387 617.977 77.968C617.241 78.5973 616.665 79.44 616.249 80.496C616.665 81.5573 617.241 82.4027 617.977 83.032C618.713 83.656 619.548 83.968 620.481 83.968ZM639.234 75.784C640.007 75.784 640.668 75.952 641.218 76.288C641.767 76.624 642.186 77.112 642.474 77.752C642.762 78.3867 642.906 79.152 642.906 80.048V85H641.434V80.304C641.434 79.232 641.21 78.4213 640.762 77.872C640.319 77.3173 639.668 77.04 638.81 77.04C638.207 77.04 637.679 77.1893 637.226 77.488C636.772 77.7813 636.42 78.1947 636.17 78.728C635.924 79.2613 635.802 79.8773 635.802 80.576V85H634.33V80.304C634.33 79.232 634.106 78.4213 633.658 77.872C633.215 77.3173 632.564 77.04 631.706 77.04C631.103 77.04 630.575 77.1893 630.122 77.488C629.668 77.7813 629.316 78.1947 629.066 78.728C628.82 79.2613 628.698 79.8773 628.698 80.576V85H627.226V78.84L626.714 75.992H628.186L628.562 78.232C628.892 77.4587 629.367 76.8587 629.986 76.432C630.61 76 631.327 75.784 632.138 75.784C633.034 75.784 633.778 76.008 634.37 76.456C634.962 76.904 635.372 77.5493 635.602 78.392C635.916 77.5707 636.391 76.9307 637.026 76.472C637.666 76.0133 638.402 75.784 639.234 75.784ZM646.161 80.928C646.23 81.552 646.435 82.096 646.777 82.56C647.123 83.0187 647.582 83.3707 648.153 83.616C648.723 83.8613 649.379 83.984 650.121 83.984C650.851 83.984 651.571 83.864 652.281 83.624C652.99 83.3787 653.633 83.0373 654.209 82.6V83.76C653.654 84.208 652.993 84.5627 652.225 84.824C651.457 85.08 650.689 85.208 649.921 85.208C648.891 85.208 647.974 85.0107 647.169 84.616C646.369 84.216 645.745 83.6587 645.297 82.944C644.849 82.2293 644.625 81.4107 644.625 80.488C644.625 79.5707 644.835 78.7547 645.257 78.04C645.683 77.3253 646.278 76.7707 647.041 76.376C647.803 75.9813 648.673 75.784 649.649 75.784C650.609 75.784 651.451 76 652.177 76.432C652.907 76.8587 653.473 77.4613 653.873 78.24C654.273 79.0133 654.473 79.9093 654.473 80.928H646.161ZM649.625 77.008C649.006 77.008 648.451 77.12 647.961 77.344C647.475 77.5627 647.078 77.88 646.769 78.296C646.465 78.7067 646.267 79.192 646.177 79.752H652.929C652.833 79.1867 652.635 78.6987 652.337 78.288C652.043 77.8773 651.665 77.5627 651.201 77.344C650.742 77.12 650.217 77.008 649.625 77.008ZM661.597 75.784C662.435 75.784 663.147 75.952 663.733 76.288C664.325 76.624 664.776 77.112 665.085 77.752C665.395 78.3867 665.549 79.152 665.549 80.048V85H664.077V80.304C664.077 79.232 663.829 78.4213 663.333 77.872C662.843 77.3173 662.12 77.04 661.165 77.04C660.509 77.04 659.931 77.1893 659.429 77.488C658.933 77.7813 658.549 78.1947 658.277 78.728C658.005 79.2613 657.869 79.8773 657.869 80.576V85H656.397V78.84L655.885 75.992H657.357L657.741 78.28C658.088 77.4907 658.597 76.8773 659.269 76.44C659.947 76.0027 660.723 75.784 661.597 75.784ZM666.517 77.184V76.472L668.493 76.104L669.085 73.664H669.965V75.992H674.357V77.184H669.965V81.752C669.965 82.2907 670.042 82.72 670.197 83.04C670.357 83.36 670.597 83.592 670.917 83.736C671.237 83.8747 671.653 83.944 672.165 83.944C672.634 83.944 673.056 83.888 673.429 83.776C673.802 83.664 674.168 83.4907 674.525 83.256V84.56C674.248 84.7307 673.858 84.88 673.357 85.008C672.856 85.1413 672.357 85.208 671.861 85.208C670.693 85.208 669.84 84.92 669.301 84.344C668.762 83.7627 668.493 82.976 668.493 81.984V77.184H666.517ZM677.042 78.92C676.749 78.92 676.501 78.8213 676.298 78.624C676.101 78.4213 676.002 78.1733 676.002 77.88C676.002 77.5867 676.101 77.3413 676.298 77.144C676.501 76.9413 676.749 76.84 677.042 76.84C677.336 76.84 677.581 76.9413 677.778 77.144C677.981 77.3413 678.082 77.5867 678.082 77.88C678.082 78.1733 677.981 78.4213 677.778 78.624C677.581 78.8213 677.336 78.92 677.042 78.92ZM677.042 85.112C676.749 85.112 676.501 85.0133 676.298 84.816C676.101 84.6133 676.002 84.3653 676.002 84.072C676.002 83.7787 676.101 83.5333 676.298 83.336C676.501 83.1333 676.749 83.032 677.042 83.032C677.336 83.032 677.581 83.1333 677.778 83.336C677.981 83.5333 678.082 83.7787 678.082 84.072C678.082 84.3653 677.981 84.6133 677.778 84.816C677.581 85.0133 677.336 85.112 677.042 85.112ZM690.186 77.072C691.205 77.072 692.077 77.2507 692.802 77.608C693.533 77.96 694.085 78.4427 694.458 79.056C694.831 79.6693 695.018 80.3573 695.018 81.12C695.018 81.9147 694.799 82.6213 694.362 83.24C693.925 83.8587 693.303 84.3413 692.498 84.688C691.698 85.0347 690.775 85.208 689.73 85.208C688.674 85.208 687.746 85.0507 686.946 84.736C686.151 84.416 685.517 83.9787 685.042 83.424C684.573 82.8693 684.277 82.2373 684.154 81.528H685.666C685.783 82.024 686.018 82.4533 686.37 82.816C686.722 83.1787 687.183 83.4587 687.754 83.656C688.325 83.848 688.983 83.944 689.73 83.944C690.482 83.944 691.141 83.8293 691.706 83.6C692.277 83.3653 692.717 83.0347 693.026 82.608C693.335 82.1813 693.49 81.6853 693.49 81.12C693.49 80.5547 693.351 80.0613 693.074 79.64C692.797 79.2133 692.394 78.8853 691.866 78.656C691.343 78.4213 690.717 78.304 689.986 78.304C689.085 78.304 688.285 78.4747 687.586 78.816C686.893 79.1573 686.341 79.5787 685.93 80.08H684.738L685.602 73H694.05V74.256H686.714L686.178 78.552C686.658 78.104 687.239 77.7467 687.922 77.48C688.61 77.208 689.365 77.072 690.186 77.072ZM700.16 79.96C699.36 79.96 698.65 79.8133 698.032 79.52C697.418 79.2213 696.941 78.8027 696.6 78.264C696.258 77.7253 696.088 77.1067 696.088 76.408C696.088 75.7093 696.258 75.0907 696.6 74.552C696.941 74.0133 697.418 73.5973 698.032 73.304C698.65 73.0053 699.36 72.856 700.16 72.856C700.96 72.856 701.666 73.0053 702.28 73.304C702.898 73.5973 703.378 74.0133 703.72 74.552C704.061 75.0907 704.232 75.7093 704.232 76.408C704.232 77.1067 704.061 77.7253 703.72 78.264C703.378 78.8027 702.898 79.2213 702.28 79.52C701.666 79.8133 700.96 79.96 700.16 79.96ZM701.456 85L707.968 73H709.992L703.464 85H701.456ZM700.16 78.352C700.768 78.352 701.245 78.1813 701.592 77.84C701.938 77.4933 702.112 77.016 702.112 76.408C702.112 75.8053 701.938 75.3307 701.592 74.984C701.245 74.632 700.768 74.456 700.16 74.456C699.557 74.456 699.082 74.632 698.736 74.984C698.389 75.3307 698.216 75.8053 698.216 76.408C698.216 77.016 698.389 77.4933 698.736 77.84C699.082 78.1813 699.557 78.352 700.16 78.352ZM711.264 85.232C710.464 85.232 709.754 85.0853 709.136 84.792C708.522 84.4933 708.045 84.0747 707.704 83.536C707.362 82.9973 707.192 82.376 707.192 81.672C707.192 80.9733 707.362 80.3573 707.704 79.824C708.045 79.2853 708.522 78.8693 709.136 78.576C709.754 78.2773 710.464 78.128 711.264 78.128C712.064 78.128 712.77 78.2773 713.384 78.576C714.002 78.8693 714.482 79.2853 714.824 79.824C715.165 80.3573 715.336 80.9733 715.336 81.672C715.336 82.376 715.165 82.9973 714.824 83.536C714.482 84.0747 714.002 84.4933 713.384 84.792C712.77 85.0853 712.064 85.232 711.264 85.232ZM711.264 83.616C711.872 83.616 712.349 83.4453 712.696 83.104C713.042 82.7573 713.216 82.28 713.216 81.672C713.216 81.0693 713.04 80.5947 712.688 80.248C712.341 79.896 711.866 79.72 711.264 79.72C710.661 79.72 710.186 79.896 709.84 80.248C709.493 80.5947 709.32 81.0693 709.32 81.672C709.32 82.28 709.493 82.7573 709.84 83.104C710.186 83.4453 710.661 83.616 711.264 83.616Z" fill="white"/>
<path d="M462.792 10.96C462.792 11.744 462.955 12.4293 463.28 13.016C463.611 13.6027 464.08 14.056 464.688 14.376C465.296 14.6907 466.008 14.848 466.824 14.848C467.645 14.848 468.357 14.6907 468.96 14.376C469.568 14.056 470.035 13.6027 470.36 13.016C470.691 12.4293 470.856 11.744 470.856 10.96V4H472.36V11C472.36 12.024 472.128 12.9307 471.664 13.72C471.2 14.5093 470.549 15.1227 469.712 15.56C468.875 15.992 467.912 16.208 466.824 16.208C465.736 16.208 464.773 15.992 463.936 15.56C463.099 15.1227 462.448 14.5093 461.984 13.72C461.52 12.9307 461.288 12.024 461.288 11V4H462.792V10.96ZM480.035 6.784C480.872 6.784 481.584 6.952 482.171 7.288C482.763 7.624 483.214 8.112 483.523 8.752C483.832 9.38667 483.987 10.152 483.987 11.048V16H482.515V11.304C482.515 10.232 482.267 9.42133 481.771 8.872C481.28 8.31733 480.558 8.04 479.603 8.04C478.947 8.04 478.368 8.18933 477.867 8.488C477.371 8.78133 476.987 9.19467 476.715 9.728C476.443 10.2613 476.307 10.8773 476.307 11.576V16H474.835V9.84L474.323 6.992H475.795L476.179 9.28C476.526 8.49067 477.035 7.87733 477.707 7.44C478.384 7.00267 479.16 6.784 480.035 6.784ZM486.239 16V3.68H487.711V16H486.239ZM494.906 16.208C493.856 16.208 492.925 16.0107 492.114 15.616C491.304 15.2213 490.674 14.6667 490.226 13.952C489.778 13.2373 489.554 12.4187 489.554 11.496C489.554 10.5733 489.778 9.75467 490.226 9.04C490.674 8.32533 491.304 7.77067 492.114 7.376C492.925 6.98133 493.856 6.784 494.906 6.784C495.957 6.784 496.888 6.98133 497.698 7.376C498.509 7.77067 499.138 8.32533 499.586 9.04C500.034 9.75467 500.258 10.5733 500.258 11.496C500.258 12.4187 500.034 13.2373 499.586 13.952C499.138 14.6667 498.509 15.2213 497.698 15.616C496.888 16.0107 495.957 16.208 494.906 16.208ZM494.906 14.984C495.685 14.984 496.362 14.8427 496.938 14.56C497.52 14.272 497.968 13.8667 498.282 13.344C498.597 12.816 498.754 12.2 498.754 11.496C498.754 10.7973 498.597 10.184 498.282 9.656C497.968 9.128 497.52 8.72267 496.938 8.44C496.362 8.152 495.685 8.008 494.906 8.008C494.128 8.008 493.448 8.152 492.866 8.44C492.29 8.72267 491.845 9.128 491.53 9.656C491.216 10.184 491.058 10.7973 491.058 11.496C491.058 12.2 491.216 12.816 491.53 13.344C491.845 13.8667 492.29 14.272 492.866 14.56C493.448 14.8427 494.128 14.984 494.906 14.984ZM511.666 12.576C511.549 13.2853 511.258 13.9173 510.794 14.472C510.336 15.0213 509.746 15.448 509.026 15.752C508.306 16.056 507.517 16.208 506.658 16.208C505.666 16.208 504.784 16.0107 504.01 15.616C503.237 15.216 502.634 14.6613 502.202 13.952C501.776 13.2373 501.562 12.4187 501.562 11.496C501.562 10.5733 501.776 9.75733 502.202 9.048C502.634 8.33333 503.237 7.77867 504.01 7.384C504.784 6.984 505.666 6.784 506.658 6.784C507.517 6.784 508.306 6.936 509.026 7.24C509.746 7.544 510.336 7.97333 510.794 8.528C511.258 9.07733 511.549 9.70933 511.666 10.424H510.154C510.042 9.93333 509.824 9.50667 509.498 9.144C509.178 8.776 508.773 8.496 508.282 8.304C507.792 8.10667 507.25 8.008 506.658 8.008C505.938 8.008 505.306 8.152 504.762 8.44C504.218 8.72267 503.8 9.128 503.506 9.656C503.213 10.1787 503.066 10.792 503.066 11.496C503.066 12.2 503.213 12.816 503.506 13.344C503.8 13.8667 504.218 14.272 504.762 14.56C505.306 14.8427 505.938 14.984 506.658 14.984C507.256 14.984 507.8 14.8853 508.29 14.688C508.781 14.4907 509.186 14.2107 509.506 13.848C509.832 13.4853 510.048 13.0613 510.154 12.576H511.666ZM519.171 10.8L522.683 16H520.915L518.219 11.92L514.771 16H513.395V3.68H514.867V13.968L520.659 6.992H522.387L519.171 10.8ZM524.489 11.928C524.558 12.552 524.764 13.096 525.105 13.56C525.452 14.0187 525.91 14.3707 526.481 14.616C527.052 14.8613 527.708 14.984 528.449 14.984C529.18 14.984 529.9 14.864 530.609 14.624C531.318 14.3787 531.961 14.0373 532.537 13.6V14.76C531.982 15.208 531.321 15.5627 530.553 15.824C529.785 16.08 529.017 16.208 528.249 16.208C527.22 16.208 526.302 16.0107 525.497 15.616C524.697 15.216 524.073 14.6587 523.625 13.944C523.177 13.2293 522.953 12.4107 522.953 11.488C522.953 10.5707 523.164 9.75467 523.585 9.04C524.012 8.32533 524.606 7.77067 525.369 7.376C526.132 6.98133 527.001 6.784 527.977 6.784C528.937 6.784 529.78 7 530.505 7.432C531.236 7.85867 531.801 8.46133 532.201 9.24C532.601 10.0133 532.801 10.9093 532.801 11.928H524.489ZM527.953 8.008C527.334 8.008 526.78 8.12 526.289 8.344C525.804 8.56267 525.406 8.88 525.097 9.296C524.793 9.70667 524.596 10.192 524.505 10.752H531.257C531.161 10.1867 530.964 9.69867 530.665 9.288C530.372 8.87733 529.993 8.56267 529.529 8.344C529.07 8.12 528.545 8.008 527.953 8.008ZM545.046 3.68L544.294 11.432L544.71 16H543.214L542.982 13.504C542.496 14.352 541.88 15.016 541.134 15.496C540.387 15.9707 539.558 16.208 538.646 16.208C537.771 16.208 536.99 16.0107 536.302 15.616C535.614 15.216 535.075 14.6587 534.686 13.944C534.302 13.2293 534.11 12.4133 534.11 11.496C534.11 10.5787 534.302 9.76267 534.686 9.048C535.075 8.33333 535.614 7.77867 536.302 7.384C536.99 6.984 537.771 6.784 538.646 6.784C539.558 6.784 540.39 7.024 541.142 7.504C541.894 7.984 542.512 8.65333 542.998 9.512L543.55 3.68H545.046ZM538.894 14.968C539.827 14.968 540.662 14.656 541.398 14.032C542.134 13.4027 542.71 12.5573 543.126 11.496C542.71 10.44 542.131 9.59733 541.39 8.968C540.654 8.33867 539.822 8.024 538.894 8.024C538.264 8.024 537.699 8.17067 537.198 8.464C536.702 8.75733 536.312 9.168 536.03 9.696C535.752 10.224 535.614 10.824 535.614 11.496C535.614 12.1733 535.752 12.776 536.03 13.304C536.312 13.8267 536.702 14.2347 537.198 14.528C537.699 14.8213 538.264 14.968 538.894 14.968ZM556.161 4.672C555.323 4.672 554.697 4.864 554.281 5.248C553.865 5.62667 553.657 6.22933 553.657 7.056V7.544H558.017V8.736H553.657V16H552.185V8.736H550.209V7.544H552.185V7.264C552.185 6.51733 552.318 5.86133 552.585 5.296C552.851 4.72533 553.267 4.28 553.833 3.96C554.403 3.63467 555.123 3.472 555.993 3.472C556.414 3.472 556.793 3.50933 557.129 3.584C557.47 3.65333 557.817 3.75467 558.169 3.888V5.128C557.859 4.968 557.542 4.85333 557.217 4.784C556.891 4.70933 556.539 4.672 556.161 4.672ZM568.685 16H567.213L566.837 13.688C566.485 14.4827 565.981 15.1013 565.325 15.544C564.669 15.9867 563.917 16.208 563.069 16.208C562.253 16.208 561.554 16.04 560.973 15.704C560.397 15.368 559.957 14.8827 559.653 14.248C559.354 13.608 559.205 12.84 559.205 11.944V6.992H560.677V11.696C560.677 12.7627 560.917 13.5733 561.397 14.128C561.877 14.6773 562.578 14.952 563.501 14.952C564.141 14.952 564.703 14.8053 565.189 14.512C565.674 14.2187 566.047 13.8053 566.309 13.272C566.575 12.7333 566.709 12.1147 566.709 11.416V6.992H568.181V13.16L568.685 16ZM569.533 8.184V7.472L571.509 7.104L572.101 4.664H572.981V6.992H577.373V8.184H572.981V12.752C572.981 13.2907 573.058 13.72 573.213 14.04C573.373 14.36 573.613 14.592 573.933 14.736C574.253 14.8747 574.669 14.944 575.181 14.944C575.65 14.944 576.071 14.888 576.445 14.776C576.818 14.664 577.183 14.4907 577.541 14.256V15.56C577.263 15.7307 576.874 15.88 576.373 16.008C575.871 16.1413 575.373 16.208 574.877 16.208C573.709 16.208 572.855 15.92 572.317 15.344C571.778 14.7627 571.509 13.976 571.509 12.984V8.184H569.533ZM588.466 16H586.994L586.618 13.688C586.266 14.4827 585.762 15.1013 585.106 15.544C584.45 15.9867 583.698 16.208 582.85 16.208C582.034 16.208 581.335 16.04 580.754 15.704C580.178 15.368 579.738 14.8827 579.434 14.248C579.135 13.608 578.986 12.84 578.986 11.944V6.992H580.458V11.696C580.458 12.7627 580.698 13.5733 581.178 14.128C581.658 14.6773 582.359 14.952 583.282 14.952C583.922 14.952 584.485 14.8053 584.97 14.512C585.455 14.2187 585.829 13.8053 586.09 13.272C586.357 12.7333 586.49 12.1147 586.49 11.416V6.992H587.962V13.16L588.466 16ZM595.498 6.784C595.727 6.784 595.962 6.8 596.202 6.832C596.442 6.864 596.642 6.90667 596.802 6.96V8.296C596.605 8.232 596.37 8.184 596.098 8.152C595.826 8.11467 595.562 8.096 595.306 8.096C594.666 8.096 594.095 8.24267 593.594 8.536C593.098 8.82933 592.709 9.25067 592.426 9.8C592.149 10.3493 592.01 10.9947 592.01 11.736V16H590.538V9.792L590.026 6.992H591.498L591.898 9.416C592.181 8.6 592.631 7.95733 593.25 7.488C593.874 7.01867 594.623 6.784 595.498 6.784ZM598.708 11.928C598.777 12.552 598.982 13.096 599.324 13.56C599.67 14.0187 600.129 14.3707 600.7 14.616C601.27 14.8613 601.926 14.984 602.668 14.984C603.398 14.984 604.118 14.864 604.828 14.624C605.537 14.3787 606.18 14.0373 606.756 13.6V14.76C606.201 15.208 605.54 15.5627 604.772 15.824C604.004 16.08 603.236 16.208 602.468 16.208C601.438 16.208 600.521 16.0107 599.716 15.616C598.916 15.216 598.292 14.6587 597.844 13.944C597.396 13.2293 597.172 12.4107 597.172 11.488C597.172 10.5707 597.382 9.75467 597.804 9.04C598.23 8.32533 598.825 7.77067 599.588 7.376C600.35 6.98133 601.22 6.784 602.196 6.784C603.156 6.784 603.998 7 604.724 7.432C605.454 7.85867 606.02 8.46133 606.42 9.24C606.82 10.0133 607.02 10.9093 607.02 11.928H598.708ZM602.172 8.008C601.553 8.008 600.998 8.12 600.508 8.344C600.022 8.56267 599.625 8.88 599.316 9.296C599.012 9.70667 598.814 10.192 598.724 10.752H605.476C605.38 10.1867 605.182 9.69867 604.884 9.288C604.59 8.87733 604.212 8.56267 603.748 8.344C603.289 8.12 602.764 8.008 602.172 8.008ZM613.255 16V3.68H614.727V16H613.255ZM617.114 16V6.96L617.85 7.088L618.586 6.96V16H617.114ZM617.85 5.632C617.541 5.632 617.282 5.53867 617.074 5.352C616.871 5.16533 616.77 4.93067 616.77 4.648C616.77 4.36533 616.871 4.13067 617.074 3.944C617.282 3.75733 617.541 3.664 617.85 3.664C618.159 3.664 618.415 3.75733 618.618 3.944C618.826 4.13067 618.93 4.36533 618.93 4.648C618.93 4.93067 618.826 5.16533 618.618 5.352C618.415 5.53867 618.159 5.632 617.85 5.632ZM629.765 13.368C629.765 13.9387 629.589 14.4373 629.237 14.864C628.885 15.2907 628.373 15.6213 627.701 15.856C627.029 16.0907 626.229 16.208 625.301 16.208C624.331 16.208 623.475 16.072 622.733 15.8C621.997 15.528 621.419 15.1467 620.997 14.656C620.581 14.1653 620.357 13.5973 620.325 12.952H621.821C621.88 13.3627 622.064 13.7253 622.373 14.04C622.683 14.3547 623.091 14.6 623.597 14.776C624.104 14.9467 624.675 15.032 625.309 15.032C625.928 15.032 626.461 14.9707 626.909 14.848C627.357 14.72 627.699 14.536 627.933 14.296C628.173 14.056 628.293 13.7707 628.293 13.44C628.293 13.1787 628.219 12.968 628.069 12.808C627.92 12.648 627.672 12.5173 627.325 12.416C626.979 12.3147 626.493 12.232 625.869 12.168L624.133 11.992C622.885 11.8693 621.984 11.5947 621.429 11.168C620.88 10.7413 620.605 10.1813 620.605 9.488C620.605 8.92267 620.781 8.43733 621.133 8.032C621.491 7.62667 621.989 7.31733 622.629 7.104C623.269 6.89067 624.013 6.784 624.861 6.784C625.747 6.784 626.541 6.912 627.245 7.168C627.955 7.424 628.517 7.784 628.933 8.248C629.349 8.712 629.579 9.24 629.621 9.832H628.125C628.077 9.48533 627.917 9.17067 627.645 8.888C627.373 8.60533 626.995 8.38133 626.509 8.216C626.024 8.04533 625.451 7.96 624.789 7.96C623.931 7.96 623.264 8.08533 622.789 8.336C622.32 8.58133 622.085 8.936 622.085 9.4C622.085 9.752 622.245 10.0293 622.565 10.232C622.885 10.4293 623.429 10.568 624.197 10.648L626.181 10.848C627.072 10.9387 627.779 11.0907 628.301 11.304C628.829 11.512 629.205 11.784 629.429 12.12C629.653 12.456 629.765 12.872 629.765 13.368ZM630.361 8.184V7.472L632.337 7.104L632.929 4.664H633.809V6.992H638.201V8.184H633.809V12.752C633.809 13.2907 633.886 13.72 634.041 14.04C634.201 14.36 634.441 14.592 634.761 14.736C635.081 14.8747 635.497 14.944 636.009 14.944C636.478 14.944 636.9 14.888 637.273 14.776C637.646 14.664 638.012 14.4907 638.369 14.256V15.56C638.092 15.7307 637.702 15.88 637.201 16.008C636.7 16.1413 636.201 16.208 635.705 16.208C634.537 16.208 633.684 15.92 633.145 15.344C632.606 14.7627 632.337 13.976 632.337 12.984V8.184H630.361ZM648.687 13.368C648.687 13.9387 648.511 14.4373 648.159 14.864C647.807 15.2907 647.295 15.6213 646.623 15.856C645.951 16.0907 645.151 16.208 644.223 16.208C643.252 16.208 642.396 16.072 641.655 15.8C640.919 15.528 640.34 15.1467 639.919 14.656C639.503 14.1653 639.279 13.5973 639.247 12.952H640.743C640.802 13.3627 640.986 13.7253 641.295 14.04C641.604 14.3547 642.012 14.6 642.519 14.776C643.026 14.9467 643.596 15.032 644.231 15.032C644.85 15.032 645.383 14.9707 645.831 14.848C646.279 14.72 646.62 14.536 646.855 14.296C647.095 14.056 647.215 13.7707 647.215 13.44C647.215 13.1787 647.14 12.968 646.991 12.808C646.842 12.648 646.594 12.5173 646.247 12.416C645.9 12.3147 645.415 12.232 644.791 12.168L643.055 11.992C641.807 11.8693 640.906 11.5947 640.351 11.168C639.802 10.7413 639.527 10.1813 639.527 9.488C639.527 8.92267 639.703 8.43733 640.055 8.032C640.412 7.62667 640.911 7.31733 641.551 7.104C642.191 6.89067 642.935 6.784 643.783 6.784C644.668 6.784 645.463 6.912 646.167 7.168C646.876 7.424 647.439 7.784 647.855 8.248C648.271 8.712 648.5 9.24 648.543 9.832H647.047C646.999 9.48533 646.839 9.17067 646.567 8.888C646.295 8.60533 645.916 8.38133 645.431 8.216C644.946 8.04533 644.372 7.96 643.711 7.96C642.852 7.96 642.186 8.08533 641.711 8.336C641.242 8.58133 641.007 8.936 641.007 9.4C641.007 9.752 641.167 10.0293 641.487 10.232C641.807 10.4293 642.351 10.568 643.119 10.648L645.103 10.848C645.994 10.9387 646.7 11.0907 647.223 11.304C647.751 11.512 648.127 11.784 648.351 12.12C648.575 12.456 648.687 12.872 648.687 13.368ZM651.449 9.92C651.155 9.92 650.907 9.82133 650.705 9.624C650.507 9.42133 650.409 9.17333 650.409 8.88C650.409 8.58667 650.507 8.34133 650.705 8.144C650.907 7.94133 651.155 7.84 651.449 7.84C651.742 7.84 651.987 7.94133 652.185 8.144C652.387 8.34133 652.489 8.58667 652.489 8.88C652.489 9.17333 652.387 9.42133 652.185 9.624C651.987 9.82133 651.742 9.92 651.449 9.92ZM651.449 16.112C651.155 16.112 650.907 16.0133 650.705 15.816C650.507 15.6133 650.409 15.3653 650.409 15.072C650.409 14.7787 650.507 14.5333 650.705 14.336C650.907 14.1333 651.155 14.032 651.449 14.032C651.742 14.032 651.987 14.1333 652.185 14.336C652.387 14.5333 652.489 14.7787 652.489 15.072C652.489 15.3653 652.387 15.6133 652.185 15.816C651.987 16.0133 651.742 16.112 651.449 16.112ZM658.064 4.84L662.424 4H663.568V16H662.064V5.36L658.064 6.064V4.84ZM672.094 16.208C670.83 16.208 669.734 15.952 668.806 15.44C667.883 14.9227 667.174 14.1973 666.678 13.264C666.187 12.3307 665.942 11.2427 665.942 10C665.942 8.75733 666.187 7.66933 666.678 6.736C667.174 5.80267 667.883 5.08 668.806 4.568C669.734 4.05067 670.83 3.792 672.094 3.792C673.358 3.792 674.451 4.05067 675.374 4.568C676.302 5.08 677.011 5.80533 677.502 6.744C677.993 7.67733 678.238 8.76267 678.238 10C678.238 11.2427 677.993 12.3333 677.502 13.272C677.011 14.2053 676.302 14.928 675.374 15.44C674.451 15.952 673.358 16.208 672.094 16.208ZM672.094 14.936C673.059 14.936 673.886 14.7413 674.574 14.352C675.267 13.9627 675.795 13.3973 676.158 12.656C676.526 11.9147 676.71 11.0293 676.71 10C676.71 8.97067 676.526 8.08533 676.158 7.344C675.795 6.60267 675.267 6.03733 674.574 5.648C673.886 5.25867 673.059 5.064 672.094 5.064C671.129 5.064 670.299 5.25867 669.606 5.648C668.913 6.03733 668.382 6.60267 668.014 7.344C667.651 8.08533 667.47 8.97067 667.47 10C667.47 11.0293 667.651 11.9147 668.014 12.656C668.382 13.3973 668.913 13.9627 669.606 14.352C670.299 14.7413 671.129 14.936 672.094 14.936ZM683.581 10.96C682.781 10.96 682.072 10.8133 681.453 10.52C680.84 10.2213 680.363 9.80267 680.021 9.264C679.68 8.72533 679.509 8.10667 679.509 7.408C679.509 6.70933 679.68 6.09067 680.021 5.552C680.363 5.01333 680.84 4.59733 681.453 4.304C682.072 4.00533 682.781 3.856 683.581 3.856C684.381 3.856 685.088 4.00533 685.701 4.304C686.32 4.59733 686.8 5.01333 687.141 5.552C687.483 6.09067 687.653 6.70933 687.653 7.408C687.653 8.10667 687.483 8.72533 687.141 9.264C686.8 9.80267 686.32 10.2213 685.701 10.52C685.088 10.8133 684.381 10.96 683.581 10.96ZM684.877 16L691.389 4H693.413L686.885 16H684.877ZM683.581 9.352C684.189 9.352 684.667 9.18133 685.013 8.84C685.36 8.49333 685.533 8.016 685.533 7.408C685.533 6.80533 685.36 6.33067 685.013 5.984C684.667 5.632 684.189 5.456 683.581 5.456C682.979 5.456 682.504 5.632 682.157 5.984C681.811 6.33067 681.637 6.80533 681.637 7.408C681.637 8.016 681.811 8.49333 682.157 8.84C682.504 9.18133 682.979 9.352 683.581 9.352ZM694.685 16.232C693.885 16.232 693.176 16.0853 692.557 15.792C691.944 15.4933 691.467 15.0747 691.125 14.536C690.784 13.9973 690.613 13.376 690.613 12.672C690.613 11.9733 690.784 11.3573 691.125 10.824C691.467 10.2853 691.944 9.86933 692.557 9.576C693.176 9.27733 693.885 9.128 694.685 9.128C695.485 9.128 696.192 9.27733 696.805 9.576C697.424 9.86933 697.904 10.2853 698.245 10.824C698.587 11.3573 698.757 11.9733 698.757 12.672C698.757 13.376 698.587 13.9973 698.245 14.536C697.904 15.0747 697.424 15.4933 696.805 15.792C696.192 16.0853 695.485 16.232 694.685 16.232ZM694.685 14.616C695.293 14.616 695.771 14.4453 696.117 14.104C696.464 13.7573 696.637 13.28 696.637 12.672C696.637 12.0693 696.461 11.5947 696.109 11.248C695.763 10.896 695.288 10.72 694.685 10.72C694.083 10.72 693.608 10.896 693.261 11.248C692.915 11.5947 692.741 12.0693 692.741 12.672C692.741 13.28 692.915 13.7573 693.261 14.104C693.608 14.4453 694.083 14.616 694.685 14.616Z" fill="white"/>
</svg>
